<svg xmlns="http://www.w3.org/2000/svg" version="1.1" width="1782" height="299" viewBox="0 0 1782 303"><filter id="b"><feGaussianBlur stdDeviation="12"/></filter>  <g filter="url(#b)"><g transform="scale(6.960938) translate(0.5 0.5)"> <g transform="translate(121.916364 22.613495) rotate(69.115278) scale(136.682302 135.800084)"><ellipse fill="#cb959e" fill-opacity="0.501961" cx="0" cy="0" rx="1" ry="1"/></g> <ellipse fill="#664a4f" fill-opacity="0.501961" cx="142" cy="0" rx="157" ry="157"/> <ellipse fill="#986269" fill-opacity="0.501961" cx="47" cy="42" rx="134" ry="134"/> <g transform="translate(210.620979 0.000000) rotate(177.155000) scale(67.158911 112.935519)"><ellipse fill="#051f1d" fill-opacity="0.501961" cx="0" cy="0" rx="1" ry="1"/></g> <ellipse fill="#9a696c" fill-opacity="0.501961" cx="99" cy="31" rx="136" ry="17"/> <g transform="translate(231 7) rotate(-3) scale(115 31)"><rect fill="#001011" fill-opacity="0.501961" x="-0.5" y="-0.5" width="1" height="1"/></g> <g transform="translate(222.769172 28.854942) rotate(195.212476) scale(10.257230 5.074118)"><ellipse fill="#ffffff" fill-opacity="0.501961" cx="0" cy="0" rx="1" ry="1"/></g> <polygon fill="#e5ceca" fill-opacity="0.501961" points="15.230065,29.636175,31.553755,15.209973,58.896515,29.715406,98.386154,26.024414"/> <g transform="translate(129 32) rotate(149) scale(17 14)"><rect fill="#ffebe0" fill-opacity="0.501961" x="-0.5" y="-0.5" width="1" height="1"/></g> </g></g></svg>