<svg xmlns="http://www.w3.org/2000/svg" version="1.1" width="386" height="298" viewBox="0 0 386 300"><filter id="b"><feGaussianBlur stdDeviation="12"/></filter>  <g filter="url(#b)"><g transform="scale(1.507812) translate(0.5 0.5)"> <ellipse fill="#bf8c94" fill-opacity="0.501961" cx="113" cy="141" rx="217" ry="217"/> <ellipse fill="#60464a" fill-opacity="0.501961" cx="130" cy="80" rx="186" ry="186"/> <ellipse fill="#60464a" fill-opacity="0.501961" cx="137" cy="79" rx="195" ry="195"/> <g transform="translate(230.300312 59.197082) rotate(342.925258) scale(59.080231 225.865113)"><ellipse fill="#001616" fill-opacity="0.501961" cx="0" cy="0" rx="1" ry="1"/></g> <g transform="translate(53.435433 138.260120) rotate(98.795208) scale(106.768714 156.394079)"><ellipse fill="#9a5f64" fill-opacity="0.501961" cx="0" cy="0" rx="1" ry="1"/></g> <polygon fill="#e5bdb6" fill-opacity="0.501961" points="140.017844,104.763125,124.045110,165.809934,116.134829,99.809507,141.960554,83.001135"/> <rect fill="#0d0003" fill-opacity="0.501961" x="103" y="163" width="37" height="35"/> <ellipse fill="#48454e" fill-opacity="0.501961" cx="109" cy="15" rx="73" ry="73"/> <g transform="translate(251 111) rotate(159) scale(15 19)"><rect fill="#fff7f3" fill-opacity="0.501961" x="-0.5" y="-0.5" width="1" height="1"/></g> </g></g></svg>